<?xml version="1.0" encoding="UTF-8" standalone="no"?><svg width="100%" height="100%" viewBox="0 0 4267 4267" version="1.1" xmlns="http://www.w3.org/2000/svg" xmlns:xlink="http://www.w3.org/1999/xlink" xml:space="preserve" style="fill-rule:evenodd;clip-rule:evenodd;stroke-linejoin:round;stroke-miterlimit:2;"><g><g><path d="M1619.538,1652.676c-21.789,82.298 -50.846,159.952 -77.424,238.426c-48.857,144.252 -96.974,288.754 -145.752,433.032c-24.364,72.066 -78.502,102.684 -152.583,87.357c-45.314,-9.374 -74.437,-37.087 -88.025,-80.432c-35.546,-113.383 -70.224,-227.038 -105.425,-340.53c-3.602,-11.614 -5.146,-24.446 -14.656,-33.43c-14.467,4.226 -14.658,16.529 -17.722,26.332c-35.199,112.626 -70.138,225.334 -105.099,338.035c-15.05,48.516 -43.945,81.542 -96.537,90.83c-70.923,12.527 -123.517,-17.102 -146.995,-85.976c-33.477,-98.206 -66.251,-196.653 -99.016,-295.099c-39.907,-119.903 -80.819,-239.497 -118.712,-360.037c-21.808,-69.374 15.917,-131.571 83.738,-146.041c63.222,-13.489 117.252,17.801 136.693,80.322c35.518,114.225 70.277,228.686 105.758,342.924c4.312,13.883 5.921,29.376 17.812,41.163c11.729,-5.286 11.638,-16.382 14.432,-25.272c35.614,-113.348 70.405,-226.959 106.601,-340.121c28.031,-87.636 123.869,-118.716 192.665,-63.729c21.308,17.031 32.149,40.225 40.113,65.305c36.713,115.609 73.439,231.214 110.056,346.853c2.237,7.063 2.806,14.835 10.609,19.177c9.317,-5.021 10.222,-14.684 12.784,-23.133c35.441,-116.882 71.223,-233.664 105.889,-350.776c17.89,-60.44 58.574,-94.269 117.438,-94.495c73.98,-0.283 121.329,52.624 113.358,129.314Z" style="fill-rule:nonzero;"/><path d="M0.193,2631.349c-0.003,-575.807 -0.602,-1149.1 0.327,-1722.39c0.323,-199.265 60.006,-380.077 186.966,-534.652c132.657,-161.512 303.413,-260.83 510.912,-294.2c43.01,-6.917 86.363,-10.097 130.003,-10.088c864.968,0.161 1729.935,0.508 2594.902,-0.039c171.43,-0.108 330.06,41.8 472.58,137.666c192.971,129.801 311.679,309.964 356.152,538.277c11.052,56.733 14.68,114.395 14.631,172.359c-0.424,502.049 -36.763,1828.899 -40.07,1926.016c-10.945,321.413 -156.134,564.251 -434.23,725.713c-125.871,73.08 -263.413,104.314 -408.932,104.204c-629.448,-0.478 -1258.896,-0.093 -1888.344,-0.546c-23.033,-0.017 -41.31,5.438 -59.591,20.096c-188.906,151.462 -378.567,301.981 -567.718,453.14c-52.076,41.616 -107.439,65.947 -173.947,37.424c-64.398,-27.618 -89.077,-81.038 -89.642,-147.074c-1.018,-119.008 -1.245,-238.044 0.471,-357.036c0.405,-28.081 -7.426,-41.3 -34.663,-50.316c-224.412,-74.288 -384.731,-222.351 -488.196,-432.814c-45.465,-92.482 -69.457,-191.39 -77.766,-294.446c-7.225,-89.61 -1.731,-179.206 -3.846,-271.291m3877.546,544.859c70.96,-102.02 106.759,-214.781 106.357,-339.439c-0.655,-203.664 39.371,-1559.373 39.571,-1949.943c0.017,-32.778 -1.705,-65.386 -7.004,-97.574c-46.78,-284.126 -295.212,-494.529 -583.778,-494.549c-869.147,-0.061 -1738.294,0.025 -2607.44,-0.022c-39.52,-0.002 -78.667,4.342 -117.176,12.217c-276.168,56.476 -474.027,298.531 -474.123,580.41c-0.223,652.07 -0.458,1304.14 0.314,1956.208c0.186,157.299 58.78,292.509 167.623,405.13c90.866,94.019 202.906,148.258 331.512,171.013c81.567,14.432 118.844,62.404 118.959,145.974c0.11,80.461 -0.133,160.922 0.21,241.382c0.036,8.431 -3.985,18.327 5.662,26.218c4.227,-2.635 8.705,-4.855 12.532,-7.895c139.117,-110.479 279.688,-219.203 416.513,-332.452c57.007,-47.185 117.142,-67.715 190.624,-67.556c642.009,1.388 1284.022,0.868 1926.033,0.7c25.931,-0.007 52.382,0.77 77.708,-3.758c163.043,-29.147 295.519,-108.683 395.902,-246.063Z" style="fill-rule:nonzero;"/><path d="M3387.922,1668.927c127.966,178.608 126.893,439.229 -3.954,602.96c-104.462,130.716 -241.726,173.1 -403.582,139.426c-40.855,-8.5 -75.903,-30.412 -107.298,-57.941c-6.631,-5.815 -11.534,-14.814 -22.381,-14.738c-9.966,7.596 -6.346,18.473 -6.378,27.934c-0.273,80.45 0.091,160.902 -0.179,241.353c-0.243,72.429 -45.941,118.985 -116.933,119.841c-69.83,0.843 -117.46,-46.797 -117.521,-119.264c-0.274,-325.158 -0.23,-650.315 -0.095,-975.473c0.022,-53.474 31.048,-92.213 83.12,-105.489c56.726,-14.462 110.165,5.484 135.118,50.625c5.598,10.127 10.59,20.59 17.541,34.187c87.836,-95.081 197.047,-110.325 314.779,-87.476c93.179,18.084 169.081,66.526 227.764,144.056m-549.606,282.003c-3.002,43.276 2.464,85.061 21.646,124.5c34.855,71.661 89.584,116.362 170.938,121.372c86.055,5.299 147.721,-35.153 188.41,-108.789c50.843,-92.014 34.692,-212.873 -37.796,-288.91c-33.917,-35.577 -76.801,-53.967 -125.256,-55.83c-118.459,-4.555 -208.721,80.442 -217.942,207.657Z" style="fill-rule:nonzero;"/><path d="M1760.451,2310.402c-182.108,-183.547 -170.542,-525.445 9.212,-690.878c107.191,-98.651 233.148,-125.294 372.972,-86.725c38.558,10.636 71.73,31.808 101.384,58.545c6.658,6.003 12.029,14.263 22.124,14.655c5.779,-2.265 6.602,-7.674 8.761,-12.069c29.821,-60.706 88.966,-85.823 152.778,-64.838c45.172,14.855 73.878,51.354 73.995,99.464c0.552,226.16 0.602,452.322 -0.037,678.482c-0.157,55.557 -34.751,94.029 -89.868,104.79c-60.644,11.841 -112.515,-11.624 -134.626,-60.879c-3.032,-6.755 -6.167,-13.463 -9.006,-19.65c-8.285,-0.666 -11.707,4.75 -15.628,8.703c-74.462,75.08 -167.351,90.367 -266.84,79.843c-87.025,-9.205 -161.836,-46.161 -225.223,-109.444m443.787,-511.686c-97.539,-93.194 -250.845,-69.118 -312.186,50.939c-41.141,80.521 -40.893,162.836 3.193,242.914c72.83,132.286 247.962,141.386 335.033,17.882c67.247,-95.385 57.502,-223.455 -26.04,-311.735Z" style="fill-rule:nonzero;"/><path d="M786.817,876.815c296.06,-128.763 642.599,-15.335 802.351,261.266c34.364,59.499 27.55,120.715 -17.474,156.987c-58.735,47.317 -138.977,33.85 -177.572,-31.051c-33.424,-56.207 -74.178,-105.414 -128.463,-142.453c-195.881,-133.647 -454.134,-73.665 -572.301,133.473c-26.816,47.006 -64.265,70.821 -119.1,65.971c-75.091,-6.641 -121.316,-76.063 -97.986,-148.086c14.816,-45.74 45.261,-82.071 74.703,-118.267c63.371,-77.906 141.336,-137.497 235.841,-177.84Z" style="fill-rule:nonzero;"/><path d="M3221.844,1318.846c-36.299,-10.656 -57.899,-34.495 -75.881,-64.464c-61.572,-102.614 -149.871,-169.158 -267.573,-196.154c-158.875,-36.439 -327.151,40.468 -412.602,171.132c-6.874,10.511 -14.13,20.907 -19.719,32.1c-32.525,65.133 -110.178,72.627 -160.35,46.208c-53.943,-28.405 -74.44,-94.024 -44.326,-154.103c32.595,-65.027 78.288,-121.079 132.888,-168.914c135.24,-118.486 294.36,-173.615 472.626,-158.833c198.259,16.44 358.899,106.196 474.203,271.346c24.505,35.099 49.19,69.677 47.298,116.135c-2.648,65.015 -62.543,117.022 -127.214,108.617c-5.812,-0.755 -11.606,-1.66 -19.35,-3.071Z" style="fill-rule:nonzero;"/><path d="M3677.725,1523.266c75.409,0.213 119,39.996 122.129,112.804c7.668,178.394 1.236,356.916 3.178,535.375c0.509,46.848 3.605,93.86 -2.29,140.618c-8.426,66.83 -56.17,106.136 -123.202,101.826c-69.496,-4.469 -110.242,-45.548 -111.861,-113.833c-0.814,-34.344 -0.248,-68.721 -0.252,-103.083c-0.026,-186.897 -0.168,-373.793 0.023,-560.69c0.062,-60.539 40.878,-105.707 100.717,-112.247c3.779,-0.413 7.634,-0.672 11.559,-0.771Z" style="fill-rule:nonzero;"/><path d="M3548.88,1351.098c-37.001,-63.275 -33.054,-131.547 9.727,-187.199c35.88,-46.674 105.543,-70.204 162.283,-54.813c68.701,18.636 113.855,70.058 123.015,140.093c7.92,60.555 -30.868,128.723 -90.106,158.354c-61.374,30.7 -133.838,19.04 -183.043,-29.873c-7.669,-7.623 -13.947,-16.644 -21.875,-26.563Z" style="fill:#2a69e5;fill-rule:nonzero;"/></g></g></svg>