<?xml version="1.0" encoding="UTF-8"?>
<svg width="1970.64453125" height="500" viewBox="0 0 1970.64453125 500" xmlns="http://www.w3.org/2000/svg">
  <!-- ICON: cuadrado azul con W blanca + 3 puntos cyan -->
  <g transform="scale(0.2990)">
    <linearGradient id="lockupBg" x1="0" y1="836" x2="1672" y2="836" gradientUnits="userSpaceOnUse">
            <stop offset="0" stop-color="#1948ae" stop-opacity="1"/>
            <stop offset="1" stop-color="#2463eb" stop-opacity="1"/>
        </linearGradient>
        <path id="Rounded-Rectangle" fill="url(#lockupBg)" fill-rule="evenodd" stroke="none" d="M 0 1291 C 0 1501.420532 170.579514 1672 381 1672 L 1291 1672 C 1501.420532 1672 1672 1501.420532 1672 1291 L 1672 381 C 1672 170.579468 1501.420532 0 1291 0 L 381 0 C 170.579514 0 0 170.579468 0 381 Z"/>
        <path id="Path" fill="#ffffff" stroke="none" d="M 1230 346.666626 C 1286.93335 354.93335 1337.199951 375.866699 1376.133301 407.599976 C 1399.733276 426.666626 1424.400024 457.06665 1437.333374 482.666626 C 1459.06665 525.866699 1463.333374 575.866699 1449.333374 621.333374 C 1440.533325 650.133362 1422.533325 679.866638 1399.466675 703.599976 C 1376.266724 727.599976 1357.866699 741.466675 1329.466675 755.866638 C 1290.93335 775.466675 1256.800049 784.666687 1209.466675 788.133362 C 1187.466675 789.733337 1151.333374 788.266663 1137.333374 785.200012 C 1130.93335 783.733337 1123.199951 784.533325 1116.133301 787.466675 C 1113.599976 788.533325 1090.93335 803.200012 1065.866699 820 C 1020.93335 850 1020 850.666687 1013.200012 850.666687 C 1005.866638 850.666687 1000.266663 848.133362 997.200012 843.466675 C 995.733337 841.200012 995.200012 830.400024 994.666687 788 C 993.866638 724.400024 995.466675 730.400024 971.733337 705.599976 C 952.133362 685.06665 942.266663 671.733337 932.133362 651.599976 C 917.333313 622.533325 911.333313 597.333374 911.599976 565.333374 C 912.266663 453.733276 1012.533325 361.199951 1150 345.466675 C 1169.466675 343.199951 1210.266724 343.866699 1230 346.666626 Z M 815.06665 649.733337 C 844.133362 659.733337 863.466675 675.866638 878.266663 702.400024 C 882.799988 710.400024 891.333313 733.866638 926.666687 835.333313 C 934.799988 858.799988 945.06665 887.866638 949.333313 900 C 958.533325 925.733337 987.06665 1006.533325 990.93335 1017.733337 C 992.400024 1022 994.133362 1025.06665 994.666687 1024.400024 C 995.200012 1023.866638 997.200012 1019.06665 999.06665 1014 C 1009.466675 985.333313 1036.666626 914.400024 1039.466675 908.93335 C 1043.866699 900.133362 1053.199951 888.133362 1060.266724 882.533325 C 1067.733276 876.400024 1100.400024 854.533325 1107.333374 851.06665 C 1110.266724 849.466675 1116.800049 847.06665 1121.866699 845.466675 C 1130.533325 842.799988 1133.599976 842.666687 1190.800049 842.666687 C 1223.733276 842.666687 1250.666626 842.93335 1250.666626 843.200012 C 1250.666626 843.599976 1227.199951 912.93335 1193.733276 1011.333313 C 1187.599976 1029.599976 1175.06665 1066.533325 1166 1093.333252 C 1127.199951 1208.266602 1108 1264.133301 1104.266724 1272.400024 C 1080.800049 1324 1030 1351.466675 975.466675 1342 C 939.333313 1335.733398 909.733337 1312.93335 892.266663 1278 C 887.733337 1268.666626 857.200012 1178.133301 791.866638 979.333313 C 785.200012 958.799988 779.333313 941.466675 778.93335 940.799988 C 778.533325 940.133362 776.533325 944 774.400024 949.466675 C 769.599976 961.200012 705.866638 1128.400024 686.93335 1178.666626 C 649.466675 1277.866699 650.666687 1274.93335 640.666687 1290 C 622.93335 1316.533325 597.06665 1334.266602 566 1340.93335 C 553.200012 1343.733398 527.599976 1343.599976 514 1340.666626 C 490.133331 1335.599976 469.066681 1324.266602 453.200012 1307.866699 C 437.600006 1291.866699 427.466675 1273.599976 415.466675 1240 C 379.866669 1139.866699 340.399994 1027.466675 304.399994 924 C 298.933319 908.266663 290.933319 885.466675 286.666656 873.333313 C 246.399994 760.133362 247.333328 763.06665 247.46666 742.666687 C 247.46666 728.400024 248 724.533325 251.066666 715.333313 C 263.733337 677.06665 296.799988 652.133362 337.600006 649.733337 C 381.200012 647.199951 418.799988 668.666687 438.266663 707.06665 C 442.533325 715.733337 461.866669 769.333313 496.799988 870 C 505.200012 894.133362 515.733337 924.133362 520.133362 936.666687 C 524.400024 949.06665 533.333313 974.533325 539.733337 993.06665 C 550.400024 1023.599976 551.733337 1026.400024 553.06665 1023.333313 C 553.866638 1021.466675 561.466675 1002.133362 569.866638 980.400024 C 585.599976 939.200012 591.599976 923.866638 606 886.666687 C 681.333313 693.333313 677.599976 702.133362 694.533325 683.733337 C 708.266663 668.93335 723.333313 658.533325 740.666687 652.133362 C 755.599976 646.533325 763.466675 645.466675 784.666687 645.866699 C 802.266663 646.133301 805.866638 646.666626 815.06665 649.733337 Z"/>
        <linearGradient id="lockupD1" x1="1268" y1="566.854187" x2="1343.115845" y2="566.854187" gradientUnits="userSpaceOnUse">
            <stop offset="0" stop-color="#3478f6" stop-opacity="1"/>
            <stop offset="1" stop-color="#53b6f9" stop-opacity="1"/>
        </linearGradient>
        <path id="path1" fill="url(#lockupD1)" stroke="none" d="M 1292 531.06665 C 1289.466675 531.866699 1284 535.866699 1279.733276 540 C 1271.733276 548 1268 556.533325 1268 566.666626 C 1268 587.06665 1284.93335 604 1305.466675 604 C 1322.93335 604 1337.06665 593.06665 1341.866699 575.866699 C 1346.533325 559.466675 1337.733276 540.400024 1322 532.666626 C 1315.733276 529.599976 1299.06665 528.666626 1292 531.06665 Z"/>
        <linearGradient id="lockupD2" x1="1142.937988" y1="566.796631" x2="1217.601807" y2="566.796631" gradientUnits="userSpaceOnUse">
            <stop offset="0" stop-color="#3478f6" stop-opacity="1"/>
            <stop offset="1" stop-color="#53b6f9" stop-opacity="1"/>
        </linearGradient>
        <path id="path2" fill="url(#lockupD2)" stroke="none" d="M 1169.333374 530.533325 C 1159.199951 533.599976 1151.06665 541.06665 1146.666626 551.06665 C 1139.866699 566.400024 1142.400024 581.199951 1154 592.800049 C 1165.866699 604.800049 1182 607.466675 1197.06665 599.866699 C 1210.666626 593.06665 1217.733276 581.733276 1217.599976 566.533325 C 1217.599976 550.666626 1207.733276 536.266724 1193.599976 531.466675 C 1187.199951 529.199951 1175.06665 528.800049 1169.333374 530.533325 Z"/>
        <linearGradient id="lockupD3" x1="1017.990417" y1="566.733704" x2="1092.312378" y2="566.733704" gradientUnits="userSpaceOnUse">
            <stop offset="0" stop-color="#3478f6" stop-opacity="1"/>
            <stop offset="1" stop-color="#53b6f9" stop-opacity="1"/>
        </linearGradient>
        <path id="path3" fill="url(#lockupD3)" stroke="none" d="M 1039.333374 532.400024 C 1015.333313 544.133301 1010.533325 577.199951 1030.266724 594.666626 C 1049.866699 611.866699 1081.199951 604.133301 1090.133301 579.733276 C 1094.93335 566.533325 1091.599976 550.266724 1082.133301 540.800049 C 1074.266724 532.93335 1067.866699 530.133301 1056 529.599976 C 1047.599976 529.333374 1044.93335 529.733276 1039.333374 532.400024 Z"/>
  </g>
  <!-- TEXT: "wapı" + "101" — convertido a paths (sin dependencia de fonts) -->
  <path fill="#0a0e1a" d="M685.82 388.23L609.38 388.23L549.26 192.29L627.19 192.29L639.43 245.73Q643.14 262.43 646.76 280.34Q650.38 298.24 653.72 316.24Q657.99 298.24 662.07 280.34Q666.15 262.43 670.42 245.73L683.96 192.29L748.54 192.29L762.08 245.73Q766.35 262.62 770.52 280.52Q774.70 298.43 778.78 316.61Q782.12 298.61 785.46 280.62Q788.80 262.62 792.32 245.73L803.83 192.29L883.24 192.29L823.13 388.23L746.68 388.23L726.46 319.95Q723.67 310.67 721.17 301.03Q718.66 291.38 716.25 281.54Q713.84 291.38 711.33 301.03Q708.83 310.67 706.04 319.95 M948.57 391.76Q919.07 391.76 900.42 377.47Q881.78 363.18 881.78 334.05Q881.78 312.16 891.80 298.89Q901.82 285.63 918.89 279.13Q935.96 272.64 957.11 271.34Q983.09 269.67 993.85 265.96Q1004.61 262.25 1004.61 254.27L1004.61 253.53Q1004.61 247.03 998.58 243.23Q992.55 239.42 982.34 239.42Q959.89 239.42 957.85 257.24L889.94 257.24Q892.35 223.84 916.29 205.84Q940.22 187.84 985.31 187.84Q1030.77 187.84 1054.43 205.84Q1078.09 223.84 1078.09 257.24L1078.09 388.23L1005.72 388.23L1005.72 360.77L1004.98 360.77Q995.33 378.21 981.32 384.99Q967.31 391.76 948.57 391.76M972.70 345.56Q984.76 345.56 995.05 338.69Q1005.35 331.83 1005.35 318.84L1005.35 303.25Q994.78 306.96 975.66 310.30Q964.35 312.16 957.76 317.08Q951.17 321.99 951.17 329.60Q951.17 337.02 957.20 341.29Q963.23 345.56 972.70 345.56 M1174.22 465.79L1100 465.79L1100 192.29L1173.48 192.29L1173.48 216.79L1174.40 216.79Q1191.85 187.84 1229.14 187.84Q1253.82 187.84 1272.65 200.83Q1291.48 213.82 1302.25 236.83Q1313.01 259.83 1313.01 289.89Q1313.01 321.06 1302.52 344.17Q1292.04 367.27 1273.12 379.98Q1254.19 392.69 1228.40 392.69Q1188.69 392.69 1174.96 359.29L1174.22 359.29L1174.22 465.79M1206.32 334.42Q1221.53 334.42 1229.79 322.27Q1238.05 310.12 1238.05 289.89Q1238.05 269.67 1229.79 257.70Q1221.53 245.73 1206.32 245.73Q1191.10 245.73 1181.36 257.70Q1171.62 269.67 1171.62 289.89Q1171.62 310.12 1181.36 322.27Q1191.10 334.42 1206.32 334.42 M1401.72 388.23L1327.50 388.23L1327.50 192.29L1401.72 192.29"/>
  <path fill="#2463eb" d="M1471.52 111.77L1539.80 111.77L1539.80 388.23L1465.59 388.23L1465.59 179.49L1465.21 179.49L1403.61 217.16L1403.61 153.33 M1674.16 392.69Q1635.94 392.69 1608.57 375.43Q1581.20 358.17 1566.64 326.26Q1552.07 294.35 1552.07 250.19Q1552.07 205.84 1566.64 173.83Q1581.20 141.83 1608.57 124.57Q1635.94 107.31 1674.16 107.31Q1712.57 107.31 1739.84 124.57Q1767.12 141.83 1781.68 173.83Q1796.25 205.84 1796.25 250.19Q1796.25 294.35 1781.68 326.35Q1767.12 358.36 1739.84 375.52Q1712.57 392.69 1674.16 392.69M1674.16 333.31Q1697.17 333.31 1710.34 311.04Q1723.52 288.78 1723.52 250.19Q1723.52 211.41 1710.34 189.05Q1697.17 166.69 1674.16 166.69Q1651.15 166.69 1637.98 189.05Q1624.80 211.41 1624.80 250.19Q1624.80 288.78 1637.98 311.04Q1651.15 333.31 1674.16 333.31 M1867.52 111.77L1935.80 111.77L1935.80 388.23L1861.58 388.23L1861.58 179.49L1861.21 179.49L1799.61 217.16L1799.61 153.33"/>
  <!-- Dot de la "i" en azul, centrado sobre el stem -->
  <circle cx="1364.61" cy="62.00" r="35.94" fill="#2463eb"/>
</svg>
